<svg viewBox="0 0 24 24" width="24" height="24" aria-hidden="true">
  <defs>
    <linearGradient id="driplGrad3" x1="0" y1="0" x2="0" y2="1">
      <stop offset="0%" stop-color="#E9D5FF"/>
      <stop offset="100%" stop-color="#C4B5FD"/>
    </linearGradient>
    <linearGradient id="driplGrad4" x1="0" y1="0" x2="1" y2="1">
      <stop offset="0%" stop-color="#A78BFA"/>
      <stop offset="100%" stop-color="#7C3AED"/>
    </linearGradient>
  </defs>
  <!-- back sheet -->
  <rect x="6.8" y="5.5" width="10.4" height="7" rx="1.2" fill="url(#driplGrad3)" stroke="#0B0B0F" stroke-width="1.2"/>
  <!-- front folder -->
  <path d="M4.7 8.8a1.9 1.9 0 0 1 1.9-1.9h3.4c.33 0 .64.13.87.36l.95.95c.23.23.54.36.87.36h4.8a1.9 1.9 0 0 1 1.9 1.9v6.1A1.9 1.9 0 0 1 17.5 20H6.6A1.9 1.9 0 0 1 4.7 18.1V8.8Z" fill="url(#driplGrad4)" stroke="#0B0B0F" stroke-width="1.4" stroke-linejoin="round"/>
  <path d="M4.7 11.1H19.9" stroke="#0B0B0F" stroke-width="1.4" stroke-linecap="round"/>
</svg>
