<!-- Dripl mascot (vector) -->
<svg xmlns="http://www.w3.org/2000/svg" viewBox="0 0 96 96">
  <defs>
    <!-- Main fill: purple -> hot pink -->
    <linearGradient id="gFill" x1="30%" y1="12%" x2="70%" y2="88%">
      <stop offset="0"  stop-color="#7B45FF"/>
      <stop offset="1"  stop-color="#FF4FD2"/>
    </linearGradient>

    <!-- Dark outline/face color -->
    <linearGradient id="gRim" x1="0" y1="0" x2="1" y2="1">
      <stop offset="0" stop-color="#1B1231"/>
      <stop offset="1" stop-color="#1B1231"/>
    </linearGradient>

    <!-- Inner shadow (subtle) -->
    <filter id="innerShadow" x="-20%" y="-20%" width="140%" height="140%">
      <feOffset dy="0.8" />
      <feGaussianBlur stdDeviation="1.2" result="b"/>
      <feComposite in="b" in2="SourceAlpha" operator="arithmetic" k2="-1" k3="1"/>
      <feColorMatrix type="matrix" values="
        0 0 0 0 0.05
        0 0 0 0 0.02
        0 0 0 0 0.12
        0 0 0 0.6 0"/>
      <feComposite in2="SourceGraphic" operator="over"/>
    </filter>

    <!-- Soft outer shadow (against dark bg) -->
    <filter id="dropShadow" x="-20%" y="-20%" width="140%" height="140%">
      <feDropShadow dx="0" dy="2" stdDeviation="2" flood-color="#110a22" flood-opacity="0.7"/>
    </filter>

    <!-- Highlight gradient (white fade) -->
    <linearGradient id="gHighlight" x1="0" y1="0" x2="1" y2="1">
      <stop offset="0" stop-color="#ffffff" stop-opacity="0.95"/>
      <stop offset="1" stop-color="#ffffff" stop-opacity="0"/>
    </linearGradient>
  </defs>

  <!-- Group with outer shadow -->
  <g filter="url(#dropShadow)">
    <!-- Outer dark rim -->
    <path
      d="M48 6
         C63 24, 84 44, 84 64
         c0 17.7-14.3 32-32 32S20 81.7 20 64
         c0-20 21-40 28-58z"
      fill="url(#gRim)"/>

    <!-- Inner colored body -->
    <path filter="url(#innerShadow)"
      d="M48 10
         C61.5 26.3, 80 44.5, 80 63
         c0 15.5-12.5 28-28 28S24 78.5 24 63
         c0-18.5 18.5-36.7 24-53z"
      fill="url(#gFill)"/>

    <!-- Eyes (pure black ovals) -->
    <ellipse cx="36.5" cy="59.5" rx="4" ry="5.1" fill="#000"/>
    <ellipse cx="59.5" cy="59.5" rx="4" ry="5.1" fill="#000"/>

    <!-- Gloss highlight (inside body) -->
    <path
      d="M59 23
         c5.8 4.6 10.5 9.9 13.9 15.8
         c1.0 1.7 0.3 3.9-1.5 4.8
         c-1.6 0.8-3.6 0.2-4.6-1.3
         c-3.8-5.6-8.7-10.6-14.6-14.8
         c-1.7-1.2-2.1-3.6-0.9-5.2
         c1.2-1.6 3.5-1.9 5.0-0.7z"
      fill="url(#gHighlight)"/>

    <!-- Little bright spec on highlight -->
    <circle cx="61.4" cy="26.6" r="2.5" fill="#fff" opacity="0.95"/>
  </g>
</svg>
